<svg xmlns="http://www.w3.org/2000/svg" width="800" height="600" viewBox="0 0 800 600">
<defs>
<style><![CDATA[
.grid{stroke:#e6e6e6;stroke-width:1}
.lbl{font-family:monospace;font-size:12px;fill:#333}
]]></style>
</defs>
<rect x="0" y="0" width="100%" height="100%" fill="#fff"/>
<line x1="0" y1="0" x2="0" y2="600" class="grid"/>
<line x1="50" y1="0" x2="50" y2="600" class="grid"/>
<line x1="100" y1="0" x2="100" y2="600" class="grid"/>
<line x1="150" y1="0" x2="150" y2="600" class="grid"/>
<line x1="200" y1="0" x2="200" y2="600" class="grid"/>
<line x1="250" y1="0" x2="250" y2="600" class="grid"/>
<line x1="300" y1="0" x2="300" y2="600" class="grid"/>
<line x1="350" y1="0" x2="350" y2="600" class="grid"/>
<line x1="400" y1="0" x2="400" y2="600" class="grid"/>
<line x1="450" y1="0" x2="450" y2="600" class="grid"/>
<line x1="500" y1="0" x2="500" y2="600" class="grid"/>
<line x1="550" y1="0" x2="550" y2="600" class="grid"/>
<line x1="600" y1="0" x2="600" y2="600" class="grid"/>
<line x1="650" y1="0" x2="650" y2="600" class="grid"/>
<line x1="700" y1="0" x2="700" y2="600" class="grid"/>
<line x1="750" y1="0" x2="750" y2="600" class="grid"/>
<line x1="800" y1="0" x2="800" y2="600" class="grid"/>
<line x1="0" y1="0" x2="800" y2="0" class="grid"/>
<line x1="0" y1="50" x2="800" y2="50" class="grid"/>
<line x1="0" y1="100" x2="800" y2="100" class="grid"/>
<line x1="0" y1="150" x2="800" y2="150" class="grid"/>
<line x1="0" y1="200" x2="800" y2="200" class="grid"/>
<line x1="0" y1="250" x2="800" y2="250" class="grid"/>
<line x1="0" y1="300" x2="800" y2="300" class="grid"/>
<line x1="0" y1="350" x2="800" y2="350" class="grid"/>
<line x1="0" y1="400" x2="800" y2="400" class="grid"/>
<line x1="0" y1="450" x2="800" y2="450" class="grid"/>
<line x1="0" y1="500" x2="800" y2="500" class="grid"/>
<line x1="0" y1="550" x2="800" y2="550" class="grid"/>
<line x1="0" y1="600" x2="800" y2="600" class="grid"/>
<rect x="0" y="0" width="800" height="600" fill="none" stroke="#ccc" stroke-width="2"/>
  <rect x="10" y="10" width="100" height="50" stroke="#FF0000" stroke-width="3" stroke-opacity="1.0" fill="none" fill-opacity="1.0"/>
  <text class="lbl" x="18" y="26">Rect (10,10,100,50)</text>
  <circle cx="200" cy="200" r="50" stroke="#00FF00" stroke-width="3" stroke-opacity="1.0" fill="none" fill-opacity="1.0"/>
  <text class="lbl" x="258" y="200">Circ (200,200,r=50)</text>
  <line x1="0" y1="0" x2="800" y2="600" stroke="#0000FF" stroke-width="3" stroke-opacity="1.0"/>
  <text class="lbl" x="408" y="300">L (0,0→800,600)</text>
  <rect x="50" y="50" width="20" height="20" stroke="#000000" stroke-width="3" stroke-opacity="1.0" fill="none" fill-opacity="1.0"/>
  <text class="lbl" x="58" y="66">Rect (50,50,20,20)</text>
</svg>
